<svg width="22" height="22" fill="none" xmlns="http://www.w3.org/2000/svg"><path d="M1 3.5A2.5 2.5 0 0 1 3.5 1H6a2.5 2.5 0 0 1 2.5 2.5V6A2.5 2.5 0 0 1 6 8.5H3.5A2.5 2.5 0 0 1 1 6V3.5Zm12.5 0A2.5 2.5 0 0 1 16 1h2.5A2.5 2.5 0 0 1 21 3.5V6a2.5 2.5 0 0 1-2.5 2.5H16A2.5 2.5 0 0 1 13.5 6V3.5ZM1 16a2.5 2.5 0 0 1 2.5-2.5H6A2.5 2.5 0 0 1 8.5 16v2.5A2.5 2.5 0 0 1 6 21H3.5A2.5 2.5 0 0 1 1 18.5V16Zm12.5 0a2.5 2.5 0 0 1 2.5-2.5h2.5A2.5 2.5 0 0 1 21 16v2.5a2.5 2.5 0 0 1-2.5 2.5H16a2.5 2.5 0 0 1-2.5-2.5V16Z" stroke="#00226C" stroke-width="2" stroke-linecap="round" stroke-linejoin="round"/></svg>