<svg width="26" height="26" fill="none" xmlns="http://www.w3.org/2000/svg"><path d="M10.906 3.397c.533-2.196 3.655-2.196 4.188 0a2.155 2.155 0 0 0 3.216 1.332c1.93-1.176 4.137 1.032 2.961 2.961a2.155 2.155 0 0 0 1.332 3.216c2.196.533 2.196 3.655 0 4.188a2.155 2.155 0 0 0-1.332 3.216c1.176 1.93-1.032 4.137-2.961 2.961a2.155 2.155 0 0 0-3.216 1.332c-.533 2.196-3.655 2.196-4.188 0a2.155 2.155 0 0 0-3.216-1.332c-1.93 1.176-4.137-1.031-2.96-2.961a2.155 2.155 0 0 0-1.332-3.216c-2.196-.533-2.196-3.655 0-4.188A2.155 2.155 0 0 0 4.729 7.69C3.553 5.76 5.76 3.553 7.69 4.73a2.155 2.155 0 0 0 3.216-1.332Z" stroke="#00226C" stroke-width="2" stroke-linecap="round" stroke-linejoin="round"/><path d="M16.75 13a3.75 3.75 0 1 1-7.5 0 3.75 3.75 0 0 1 7.5 0Z" stroke="#00226C" stroke-width="2" stroke-linecap="round" stroke-linejoin="round"/></svg>