<svg width="32" height="32" fill="none" xmlns="http://www.w3.org/2000/svg"><path d="M28 20.6V25c0 1.1-.9 2-2 2H6c-1.1 0-2-.9-2-2v-4.4" stroke="#fff" stroke-width="2" stroke-miterlimit="10" stroke-linecap="round" stroke-linejoin="round"/><path d="M16 24c-1.1 0-2-.9-2-2v-3h4v3c0 1.1-.9 2-2 2Z" stroke="#fff" stroke-width="2" stroke-miterlimit="10" stroke-linecap="round" stroke-linejoin="round"/><path d="M14 22H7c-2.2 0-4-1.8-4-4v-8c0-1.1.9-2 2-2h22c1.1 0 2 .9 2 2v8c0 2.2-1.8 4-4 4h-7m2-14h-8V6c0-1.1.9-2 2-2h4c1.1 0 2 .9 2 2v2ZM7 28v-1m18 1v-1" stroke="#fff" stroke-width="2" stroke-miterlimit="10" stroke-linecap="round" stroke-linejoin="round"/></svg>