<svg width="32" height="32" fill="none" xmlns="http://www.w3.org/2000/svg"><path d="m3 25 2.6-4.2c1.5-2.3 4-3.8 6.8-3.8H19c0 2.2-1.8 4-4 4h-2" stroke="#fff" stroke-width="2" stroke-miterlimit="10" stroke-linecap="round" stroke-linejoin="round"/><path d="M15 21h8l1.2-1.6c1.1-1.5 2.9-2.4 4.8-2.4l-2.7 4.8c-1.4 2.6-4.2 4.2-7.1 4.2-4.7 0-9.3 1.4-13.2 4M5 12h22" stroke="#fff" stroke-width="2" stroke-miterlimit="10" stroke-linecap="round" stroke-linejoin="round"/><path d="M7.4 18.8C5.9 16.9 5 14.6 5 12 5 5.9 9.9 1 16 1s11 4.9 11 11c0 2.8-1.1 5.4-2.8 7.4" stroke="#fff" stroke-width="2" stroke-miterlimit="10" stroke-linecap="round" stroke-linejoin="round"/><path d="M11.5 17.1c-.4-1.5-.6-3.2-.6-5.1 0-6.1 2.3-11 5.1-11s5.1 4.9 5.1 11c0 3.6-.8 6.9-2.1 8.9" stroke="#fff" stroke-width="2" stroke-miterlimit="10" stroke-linecap="round" stroke-linejoin="round"/></svg>