<svg width="183" height="35" fill="none" xmlns="http://www.w3.org/2000/svg"><path d="M32.974 16.01v-.862C32.661 6.33 25.274 0 16.415 0 7.37 0 0 7.4 0 16.48s7.37 16.481 16.414 16.481c4.39 0 8.363-1.732 11.317-4.54L32.999 35l-.025-17.512c.027-.315 0-.644 0-.985v-.493Zm-16.56 11.545c-6.064 0-11.004-4.96-11.004-11.048 0-6.089 4.94-11.048 11.004-11.048 6.063 0 11.003 4.96 11.003 11.048s-4.94 11.048-11.003 11.048Z" fill="#0F67FE"/><path d="M49.392 29v-7.028l.494.6c-.44.675-1.052 1.198-1.838 1.566a6.188 6.188 0 0 1-2.568.53c-1.241 0-2.348-.284-3.322-.852a6.389 6.389 0 0 1-2.31-2.374c-.565-.998-.848-2.104-.848-3.318 0-1.229.283-2.334.848-3.317a6.44 6.44 0 0 1 2.31-2.35c.99-.585 2.089-.876 3.298-.876.974 0 1.838.192 2.592.576.77.368 1.375.89 1.815 1.566l-.307.623v-2.489h2.922V29h-3.087Zm-3.582-7.097c.707 0 1.327-.161 1.861-.484.534-.322.95-.768 1.25-1.336.313-.568.47-1.221.47-1.959 0-.721-.157-1.367-.47-1.935a3.31 3.31 0 0 0-1.25-1.36c-.534-.322-1.154-.483-1.861-.483-.691 0-1.312.169-1.862.506a3.46 3.46 0 0 0-1.296 1.337c-.298.553-.447 1.198-.447 1.935 0 .738.149 1.39.447 1.959a3.46 3.46 0 0 0 1.296 1.336c.55.323 1.17.484 1.862.484Zm15.29 2.765c-.99 0-1.854-.215-2.592-.645a4.348 4.348 0 0 1-1.674-1.797c-.377-.768-.565-1.667-.565-2.696v-7.673h3.087v7.42c0 .522.102.983.306 1.382.22.384.526.691.92.922.408.215.863.322 1.366.322.502 0 .95-.107 1.343-.322a2.44 2.44 0 0 0 .919-.945c.22-.4.33-.876.33-1.429v-7.35h3.087v12.535h-2.922v-2.466l.259.438c-.299.768-.793 1.344-1.485 1.728-.675.384-1.468.576-2.38.576Zm14.462 0c-.895 0-1.673-.146-2.333-.438-.66-.291-1.17-.706-1.531-1.244-.362-.553-.542-1.19-.542-1.912 0-.692.157-1.306.471-1.844.314-.553.801-1.013 1.461-1.382s1.492-.63 2.498-.784l4.194-.668v2.305l-3.605.598c-.613.108-1.068.3-1.367.577-.298.276-.448.637-.448 1.082 0 .43.165.776.495 1.037.346.246.77.37 1.273.37.644 0 1.21-.131 1.696-.393a2.884 2.884 0 0 0 1.155-1.129c.283-.476.424-.998.424-1.567v-3.225c0-.538-.22-.983-.66-1.337-.424-.368-.99-.553-1.696-.553-.66 0-1.25.177-1.768.53a2.973 2.973 0 0 0-1.107 1.36l-2.521-1.198a4.306 4.306 0 0 1 1.178-1.705 6.047 6.047 0 0 1 1.932-1.153 6.799 6.799 0 0 1 2.403-.414c1.053 0 1.98.192 2.78.576.802.368 1.423.89 1.862 1.566.456.661.684 1.437.684 2.328v8.34h-2.922V22.25l.66-.046a5.33 5.33 0 0 1-1.178 1.36 5.368 5.368 0 0 1-1.556.829 6.37 6.37 0 0 1-1.932.276Zm10.958-.276V11.857h2.9v2.788l-.236-.415c.298-.937.761-1.59 1.39-1.958.644-.369 1.414-.553 2.31-.553h.753v2.673H92.53c-.88 0-1.587.269-2.121.806-.534.522-.801 1.26-.801 2.212v6.982H86.52Zm16.181.138c-1.445 0-2.568-.384-3.37-1.152-.785-.784-1.178-1.882-1.178-3.295v-5.53H95.94v-2.696h.235c.629 0 1.115-.161 1.461-.484.346-.322.518-.79.518-1.405V9h3.087v2.857h2.946v2.696h-2.946v5.369c0 .414.071.768.212 1.06.157.291.393.514.707.668.33.153.746.23 1.249.23.11 0 .236-.008.377-.023.157-.015.307-.03.448-.046v2.58c-.22.031-.471.062-.754.093a7.44 7.44 0 0 1-.778.046Zm3.961-.138v-2.443l7.446-8.433.471 1.037h-7.587v-2.696h10.321v2.466l-7.305 8.433-.471-1.037h7.823v2.673h-10.698ZM120.292 29V11.857h2.898v2.489l-.282-.623a4.382 4.382 0 0 1 1.79-1.566c.754-.384 1.626-.576 2.616-.576 1.21 0 2.301.292 3.275.875a6.436 6.436 0 0 1 2.309 2.35c.582.984.872 2.09.872 3.318 0 1.214-.282 2.32-.848 3.318a6.384 6.384 0 0 1-2.309 2.374c-.974.568-2.082.852-3.323.852a6.188 6.188 0 0 1-2.568-.53 4.526 4.526 0 0 1-1.838-1.567l.495-.599V29h-3.087Zm6.645-7.097c.707 0 1.335-.161 1.885-.484a3.29 3.29 0 0 0 1.272-1.336c.315-.568.472-1.221.472-1.959 0-.737-.157-1.382-.472-1.935a3.29 3.29 0 0 0-1.272-1.337c-.55-.337-1.178-.506-1.885-.506a3.56 3.56 0 0 0-1.838.483 3.47 3.47 0 0 0-1.272 1.36c-.299.568-.448 1.213-.448 1.935 0 .738.149 1.39.448 1.959a3.513 3.513 0 0 0 1.272 1.336 3.56 3.56 0 0 0 1.838.484Zm10.365 2.489V11.857h2.898v2.788l-.235-.415c.298-.937.761-1.59 1.39-1.958.644-.369 1.414-.553 2.309-.553h.754v2.673h-1.107c-.88 0-1.587.269-2.121.806-.534.522-.801 1.26-.801 2.212v6.982h-3.087Zm16.259.276c-1.257 0-2.403-.284-3.44-.852a6.655 6.655 0 0 1-2.451-2.328c-.597-.983-.895-2.104-.895-3.364 0-1.26.298-2.38.895-3.364a6.655 6.655 0 0 1 2.451-2.327c1.021-.568 2.168-.852 3.44-.852 1.257 0 2.396.284 3.417.852a6.468 6.468 0 0 1 2.427 2.327c.613.968.919 2.09.919 3.364 0 1.26-.306 2.381-.919 3.364a6.655 6.655 0 0 1-2.451 2.328c-1.021.568-2.152.852-3.393.852Zm0-2.765c.691 0 1.296-.161 1.815-.484a3.34 3.34 0 0 0 1.248-1.336c.315-.584.472-1.237.472-1.959 0-.737-.157-1.382-.472-1.935a3.34 3.34 0 0 0-1.248-1.337c-.519-.337-1.124-.506-1.815-.506-.707 0-1.327.169-1.861.506a3.515 3.515 0 0 0-1.273 1.337c-.298.553-.447 1.198-.447 1.935 0 .722.149 1.375.447 1.959a3.515 3.515 0 0 0 1.273 1.336c.534.323 1.154.484 1.861.484Zm10.282 2.489V11.857h2.898v2.903l-.33-.483c.236-.907.707-1.583 1.414-2.028.707-.446 1.54-.668 2.498-.668 1.052 0 1.979.269 2.78.806.802.538 1.32 1.244 1.556 2.12l-.872.069c.392-.998.982-1.743 1.767-2.235.785-.507 1.689-.76 2.71-.76.911 0 1.72.2 2.427.599.722.4 1.288.96 1.696 1.682.409.706.613 1.528.613 2.465v8.065h-3.087v-7.35c0-.554-.102-1.03-.306-1.43a2.22 2.22 0 0 0-.848-.92c-.362-.231-.802-.346-1.32-.346-.487 0-.919.115-1.296.345a2.174 2.174 0 0 0-.872.922c-.204.4-.306.875-.306 1.428v7.35h-3.087v-7.35c0-.553-.102-1.029-.306-1.428a2.174 2.174 0 0 0-.872-.922c-.361-.23-.793-.345-1.296-.345-.487 0-.919.115-1.296.345a2.174 2.174 0 0 0-.872.922c-.204.4-.306.875-.306 1.428v7.35h-3.087Z" fill="#00226C"/></svg>