<svg width="222" height="43" fill="none" xmlns="http://www.w3.org/2000/svg"><path d="M40.002 19.972v-1.044C39.622 8.25 30.66.583 19.912.583 8.942.583 0 9.546 0 20.543 0 31.537 8.941 40.5 19.912 40.5c5.326 0 10.146-2.098 13.729-5.498l6.39 7.967-.03-21.208c.033-.382 0-.78 0-1.193v-.597Zm-20.09 13.982c-7.356 0-13.349-6.007-13.349-13.38 0-7.373 5.993-13.38 13.349-13.38s13.348 6.007 13.348 13.38c0 7.373-5.992 13.38-13.348 13.38Z" fill="#0F67FE"/><path d="M59.918 35.764v-8.526l.6.727c-.534.82-1.277 1.454-2.23 1.9-.953.43-1.991.644-3.116.644-1.505 0-2.849-.345-4.03-1.034a7.75 7.75 0 0 1-2.801-2.88c-.687-1.21-1.03-2.552-1.03-4.025 0-1.49.343-2.832 1.03-4.025a7.814 7.814 0 0 1 2.8-2.85c1.202-.709 2.535-1.063 4.003-1.063 1.181 0 2.23.233 3.144.699.934.447 1.668 1.08 2.201 1.9l-.371.755v-3.019h3.544v20.797h-3.744Zm-4.345-8.61c.857 0 1.61-.195 2.258-.586a4.057 4.057 0 0 0 1.515-1.622c.381-.69.572-1.481.572-2.376 0-.875-.191-1.658-.572-2.348a4.014 4.014 0 0 0-1.515-1.649c-.648-.391-1.4-.587-2.258-.587-.839 0-1.592.205-2.259.615a4.196 4.196 0 0 0-1.572 1.622c-.362.67-.543 1.453-.543 2.347 0 .895.181 1.687.543 2.376.381.69.905 1.23 1.572 1.622.667.39 1.42.587 2.259.587Zm18.547 3.355c-1.2 0-2.248-.261-3.144-.783a5.275 5.275 0 0 1-2.03-2.18c-.456-.932-.685-2.022-.685-3.27v-9.309h3.745v9.001c0 .634.123 1.193.371 1.677a3.02 3.02 0 0 0 1.115 1.118 3.5 3.5 0 0 0 1.658.392c.61 0 1.153-.13 1.63-.392.476-.28.847-.661 1.114-1.146.267-.484.4-1.062.4-1.733v-8.917h3.745v15.206h-3.545v-2.99l.315.53c-.362.932-.963 1.631-1.801 2.097-.82.466-1.782.699-2.887.699Zm17.546 0c-1.087 0-2.03-.177-2.83-.531-.8-.354-1.42-.858-1.858-1.51-.439-.67-.658-1.444-.658-2.32 0-.838.19-1.584.572-2.236.381-.67.972-1.23 1.772-1.677.8-.447 1.81-.764 3.03-.95l5.088-.811v2.795l-4.373.727c-.743.13-1.296.363-1.658.699-.362.335-.543.773-.543 1.314 0 .521.2.94.6 1.257.42.299.934.448 1.544.448.78 0 1.467-.159 2.058-.476a3.499 3.499 0 0 0 1.4-1.37 3.655 3.655 0 0 0 .515-1.9v-3.913c0-.652-.267-1.193-.8-1.622-.515-.447-1.201-.67-2.059-.67-.8 0-1.515.214-2.143.643a3.61 3.61 0 0 0-1.344 1.649L86.92 18.6a5.225 5.225 0 0 1 1.43-2.068 7.337 7.337 0 0 1 2.344-1.398c.895-.335 1.867-.503 2.915-.503 1.277 0 2.401.233 3.373.699.972.447 1.725 1.08 2.259 1.9.552.802.829 1.743.829 2.824v10.118h-3.545v-2.6l.8-.055a6.41 6.41 0 0 1-1.429 1.65 6.498 6.498 0 0 1-1.886 1.005c-.706.224-1.487.336-2.344.336Zm13.294-.336V14.968h3.516v3.382l-.286-.503c.362-1.137.924-1.93 1.687-2.376.781-.448 1.715-.671 2.801-.671h.915v3.242h-1.344c-1.067 0-1.925.326-2.573.978-.648.634-.971 1.529-.971 2.684v8.47h-3.745Zm19.628.168c-1.753 0-3.115-.466-4.087-1.398-.953-.95-1.429-2.282-1.429-3.997v-6.708h-2.687v-3.27h.285c.763 0 1.353-.196 1.773-.588.419-.39.629-.96.629-1.705v-1.174h3.744v3.466h3.573v3.27h-3.573v6.514c0 .503.086.931.257 1.285.191.354.477.625.858.811.4.186.905.28 1.515.28.133 0 .286-.01.457-.028l.544-.056v3.13c-.267.038-.572.075-.915.112a8.815 8.815 0 0 1-.944.056Zm4.805-.168v-2.962l9.033-10.231.572 1.258h-9.205v-3.27h12.521v2.99l-8.862 10.23-.571-1.257h9.49v3.242h-12.978Zm16.535 5.591V14.967h3.516v3.02l-.343-.755a5.327 5.327 0 0 1 2.173-1.901c.914-.466 1.972-.699 3.173-.699 1.467 0 2.791.354 3.973 1.062a7.817 7.817 0 0 1 2.801 2.851c.705 1.193 1.058 2.535 1.058 4.025 0 1.473-.343 2.814-1.029 4.026a7.749 7.749 0 0 1-2.802 2.879c-1.181.69-2.525 1.034-4.03 1.034-1.124 0-2.163-.215-3.116-.643-.934-.447-1.677-1.08-2.229-1.9l.6-.728v8.526h-3.745Zm8.061-8.61c.858 0 1.62-.195 2.287-.586a4.005 4.005 0 0 0 1.544-1.622c.381-.69.571-1.481.571-2.376 0-.894-.19-1.677-.571-2.348a4.004 4.004 0 0 0-1.544-1.62c-.667-.41-1.429-.616-2.287-.616a4.32 4.32 0 0 0-2.229.587 4.211 4.211 0 0 0-1.544 1.65c-.362.689-.543 1.472-.543 2.347 0 .895.181 1.687.543 2.376.381.69.896 1.23 1.544 1.622a4.32 4.32 0 0 0 2.229.587Zm12.574 3.019V14.968h3.516v3.382l-.286-.503c.362-1.137.924-1.93 1.687-2.376.781-.448 1.715-.671 2.801-.671h.915v3.242h-1.344c-1.067 0-1.925.326-2.572.978-.648.634-.972 1.529-.972 2.684v8.47h-3.745Zm19.724.336c-1.524 0-2.915-.345-4.173-1.034a8.065 8.065 0 0 1-2.973-2.824c-.724-1.192-1.086-2.552-1.086-4.08 0-1.529.362-2.889 1.086-4.082a8.064 8.064 0 0 1 2.973-2.823c1.239-.69 2.63-1.034 4.173-1.034 1.525 0 2.907.345 4.145 1.034a7.851 7.851 0 0 1 2.945 2.823c.743 1.174 1.114 2.535 1.114 4.081 0 1.529-.371 2.889-1.114 4.081a8.08 8.08 0 0 1-2.973 2.824c-1.239.69-2.611 1.034-4.117 1.034Zm0-3.354c.839 0 1.573-.196 2.201-.587a4.056 4.056 0 0 0 1.515-1.622c.382-.708.572-1.5.572-2.376 0-.894-.19-1.677-.572-2.348a4.055 4.055 0 0 0-1.515-1.62c-.628-.41-1.362-.616-2.201-.616-.857 0-1.61.205-2.258.615a4.26 4.26 0 0 0-1.543 1.622c-.362.67-.544 1.453-.544 2.347 0 .876.182 1.668.544 2.376a4.26 4.26 0 0 0 1.543 1.622c.648.39 1.401.587 2.258.587Zm12.473 3.018V14.968h3.516v3.521l-.4-.587c.286-1.099.858-1.919 1.715-2.46.858-.54 1.868-.81 3.03-.81 1.277 0 2.401.326 3.373.978.972.653 1.601 1.51 1.887 2.572l-1.058.084c.477-1.211 1.191-2.115 2.144-2.711.953-.615 2.049-.923 3.287-.923 1.106 0 2.087.242 2.945.727a5.235 5.235 0 0 1 2.058 2.04c.495.857.743 1.854.743 2.991v9.783h-3.745v-8.916c0-.671-.123-1.249-.371-1.733a2.697 2.697 0 0 0-1.029-1.118c-.439-.28-.972-.42-1.601-.42-.591 0-1.115.14-1.572.42-.458.26-.81.633-1.058 1.118-.248.484-.371 1.062-.371 1.733v8.916h-3.745v-8.916c0-.671-.124-1.249-.372-1.733a2.634 2.634 0 0 0-1.057-1.118c-.439-.28-.963-.42-1.573-.42-.59 0-1.114.14-1.572.42-.457.26-.81.633-1.057 1.118-.248.484-.372 1.062-.372 1.733v8.916h-3.745Z" fill="#fff"/></svg>